<mxfile host="Electron" agent="Mozilla/5.0 (Windows NT 10.0; Win64; x64) AppleWebKit/537.36 (KHTML, like Gecko) draw.io/26.0.9 Chrome/128.0.6613.186 Electron/32.2.5 Safari/537.36" version="26.0.9">
  <diagram name="Page-1" id="uUGEk0s50XGIN1bECCKj">
    <mxGraphModel dx="989" dy="577" grid="1" gridSize="10" guides="1" tooltips="1" connect="1" arrows="1" fold="1" page="1" pageScale="1" pageWidth="827" pageHeight="1169" math="0" shadow="0">
      <root>
        <mxCell id="0" />
        <mxCell id="1" parent="0" />
        <mxCell id="xJHTBT60ky4UOFHXVave-1" value="&lt;span data-teams=&quot;true&quot;&gt;Dependance&lt;/span&gt;" style="rounded=0;whiteSpace=wrap;html=1;" parent="1" vertex="1">
          <mxGeometry x="280" y="80" width="120" height="60" as="geometry" />
        </mxCell>
        <mxCell id="xJHTBT60ky4UOFHXVave-3" value="" style="endArrow=block;dashed=1;endFill=0;endSize=12;html=1;rounded=0;entryX=0.442;entryY=0.967;entryDx=0;entryDy=0;entryPerimeter=0;" parent="1" target="xJHTBT60ky4UOFHXVave-1" edge="1">
          <mxGeometry width="160" relative="1" as="geometry">
            <mxPoint x="333" y="200" as="sourcePoint" />
            <mxPoint x="490" y="430" as="targetPoint" />
          </mxGeometry>
        </mxCell>
        <mxCell id="xJHTBT60ky4UOFHXVave-4" value="Association" style="rounded=0;whiteSpace=wrap;html=1;" parent="1" vertex="1">
          <mxGeometry x="70" y="230" width="120" height="60" as="geometry" />
        </mxCell>
        <mxCell id="xJHTBT60ky4UOFHXVave-5" value="" style="endArrow=classic;startArrow=classic;html=1;rounded=0;" parent="1" edge="1">
          <mxGeometry width="50" height="50" relative="1" as="geometry">
            <mxPoint x="50" y="320" as="sourcePoint" />
            <mxPoint x="160" y="320" as="targetPoint" />
            <Array as="points">
              <mxPoint x="120" y="320" />
            </Array>
          </mxGeometry>
        </mxCell>
        <mxCell id="xJHTBT60ky4UOFHXVave-6" value="" style="endArrow=none;html=1;rounded=0;" parent="1" edge="1">
          <mxGeometry width="50" height="50" relative="1" as="geometry">
            <mxPoint x="30" y="400" as="sourcePoint" />
            <mxPoint x="240" y="400" as="targetPoint" />
          </mxGeometry>
        </mxCell>
        <mxCell id="xJHTBT60ky4UOFHXVave-7" value="Ou" style="text;html=1;align=center;verticalAlign=middle;resizable=0;points=[];autosize=1;strokeColor=none;fillColor=none;" parent="1" vertex="1">
          <mxGeometry x="100" y="328" width="40" height="30" as="geometry" />
        </mxCell>
        <mxCell id="xJHTBT60ky4UOFHXVave-8" value="Heritage&lt;div&gt;&lt;br&gt;&lt;/div&gt;" style="rounded=0;whiteSpace=wrap;html=1;" parent="1" vertex="1">
          <mxGeometry x="294" y="230" width="120" height="60" as="geometry" />
        </mxCell>
        <mxCell id="xJHTBT60ky4UOFHXVave-9" value="" style="triangle;whiteSpace=wrap;html=1;rotation=-90;" parent="1" vertex="1">
          <mxGeometry x="339" y="278" width="30" height="50" as="geometry" />
        </mxCell>
        <mxCell id="xJHTBT60ky4UOFHXVave-10" value="" style="endArrow=none;html=1;rounded=0;entryX=0;entryY=0.5;entryDx=0;entryDy=0;" parent="1" edge="1">
          <mxGeometry width="50" height="50" relative="1" as="geometry">
            <mxPoint x="356" y="360" as="sourcePoint" />
            <mxPoint x="356" y="318" as="targetPoint" />
          </mxGeometry>
        </mxCell>
        <mxCell id="xJHTBT60ky4UOFHXVave-11" value="Realisation" style="rounded=0;whiteSpace=wrap;html=1;" parent="1" vertex="1">
          <mxGeometry x="520" y="220" width="120" height="60" as="geometry" />
        </mxCell>
        <mxCell id="xJHTBT60ky4UOFHXVave-12" value="" style="triangle;whiteSpace=wrap;html=1;rotation=-90;" parent="1" vertex="1">
          <mxGeometry x="565" y="270" width="30" height="50" as="geometry" />
        </mxCell>
        <mxCell id="xJHTBT60ky4UOFHXVave-14" value="" style="endArrow=none;dashed=1;html=1;dashPattern=1 3;strokeWidth=2;rounded=0;" parent="1" edge="1">
          <mxGeometry width="50" height="50" relative="1" as="geometry">
            <mxPoint x="579.5" y="360" as="sourcePoint" />
            <mxPoint x="579.5" y="310" as="targetPoint" />
          </mxGeometry>
        </mxCell>
        <mxCell id="xJHTBT60ky4UOFHXVave-15" value="&lt;span data-teams=&quot;true&quot;&gt;Multiplicité&lt;/span&gt;" style="text;html=1;align=center;verticalAlign=middle;whiteSpace=wrap;rounded=0;" parent="1" vertex="1">
          <mxGeometry x="30" y="400" width="60" height="30" as="geometry" />
        </mxCell>
        <mxCell id="xJHTBT60ky4UOFHXVave-16" value="NomRole" style="text;html=1;align=center;verticalAlign=middle;whiteSpace=wrap;rounded=0;" parent="1" vertex="1">
          <mxGeometry x="30" y="430" width="60" height="30" as="geometry" />
        </mxCell>
        <mxCell id="xJHTBT60ky4UOFHXVave-17" value="&lt;span data-teams=&quot;true&quot;&gt;Multiplicité&lt;/span&gt;" style="text;html=1;align=center;verticalAlign=middle;whiteSpace=wrap;rounded=0;" parent="1" vertex="1">
          <mxGeometry x="180" y="400" width="60" height="30" as="geometry" />
        </mxCell>
        <mxCell id="xJHTBT60ky4UOFHXVave-18" value="NomRole" style="text;html=1;align=center;verticalAlign=middle;whiteSpace=wrap;rounded=0;" parent="1" vertex="1">
          <mxGeometry x="180" y="430" width="60" height="30" as="geometry" />
        </mxCell>
        <mxCell id="xJHTBT60ky4UOFHXVave-19" value="nomAssociation" style="text;html=1;align=center;verticalAlign=middle;whiteSpace=wrap;rounded=0;" parent="1" vertex="1">
          <mxGeometry x="90" y="370" width="60" height="30" as="geometry" />
        </mxCell>
        <mxCell id="xJHTBT60ky4UOFHXVave-22" value="estUn" style="text;html=1;align=center;verticalAlign=middle;whiteSpace=wrap;rounded=0;" parent="1" vertex="1">
          <mxGeometry x="360" y="328" width="60" height="30" as="geometry" />
        </mxCell>
        <mxCell id="xJHTBT60ky4UOFHXVave-23" value="RealiséLeContra" style="text;html=1;align=center;verticalAlign=middle;whiteSpace=wrap;rounded=0;" parent="1" vertex="1">
          <mxGeometry x="600" y="320" width="60" height="30" as="geometry" />
        </mxCell>
        <mxCell id="xJHTBT60ky4UOFHXVave-24" value="Aggrégation" style="rounded=0;whiteSpace=wrap;html=1;" parent="1" vertex="1">
          <mxGeometry x="294" y="440" width="120" height="60" as="geometry" />
        </mxCell>
        <mxCell id="xJHTBT60ky4UOFHXVave-25" value="" style="endArrow=diamondThin;endFill=0;endSize=24;html=1;rounded=0;" parent="1" edge="1">
          <mxGeometry width="160" relative="1" as="geometry">
            <mxPoint x="270" y="530" as="sourcePoint" />
            <mxPoint x="430" y="530" as="targetPoint" />
          </mxGeometry>
        </mxCell>
        <mxCell id="xJHTBT60ky4UOFHXVave-26" value="" style="endArrow=diamondThin;endFill=1;endSize=24;html=1;rounded=0;" parent="1" edge="1">
          <mxGeometry width="160" relative="1" as="geometry">
            <mxPoint x="555" y="525" as="sourcePoint" />
            <mxPoint x="715" y="525" as="targetPoint" />
          </mxGeometry>
        </mxCell>
        <mxCell id="xJHTBT60ky4UOFHXVave-27" value="2 &amp;gt; 1 = 1..*, 0..*" style="text;html=1;align=center;verticalAlign=middle;whiteSpace=wrap;rounded=0;" parent="1" vertex="1">
          <mxGeometry x="430" y="510" width="79" height="30" as="geometry" />
        </mxCell>
        <mxCell id="xJHTBT60ky4UOFHXVave-28" value="max 1 =1" style="text;html=1;align=center;verticalAlign=middle;whiteSpace=wrap;rounded=0;" parent="1" vertex="1">
          <mxGeometry x="725" y="510" width="60" height="30" as="geometry" />
        </mxCell>
        <mxCell id="xJHTBT60ky4UOFHXVave-29" value="estComposer" style="text;html=1;align=center;verticalAlign=middle;whiteSpace=wrap;rounded=0;" parent="1" vertex="1">
          <mxGeometry x="610" y="500" width="60" height="30" as="geometry" />
        </mxCell>
        <mxCell id="xJHTBT60ky4UOFHXVave-31" value="Composition" style="rounded=0;whiteSpace=wrap;html=1;" parent="1" vertex="1">
          <mxGeometry x="610" y="440" width="120" height="60" as="geometry" />
        </mxCell>
        <mxCell id="xJHTBT60ky4UOFHXVave-32" value="&lt;span data-teams=&quot;true&quot;&gt;Multiplicité&lt;/span&gt;" style="text;html=1;align=center;verticalAlign=middle;whiteSpace=wrap;rounded=0;" parent="1" vertex="1">
          <mxGeometry x="260" y="530" width="60" height="30" as="geometry" />
        </mxCell>
        <mxCell id="xJHTBT60ky4UOFHXVave-33" value="&lt;span data-teams=&quot;true&quot;&gt;Multiplicité&lt;/span&gt;" style="text;html=1;align=center;verticalAlign=middle;whiteSpace=wrap;rounded=0;" parent="1" vertex="1">
          <mxGeometry x="665" y="530" width="60" height="30" as="geometry" />
        </mxCell>
        <mxCell id="xJHTBT60ky4UOFHXVave-34" value="estComposer" style="text;html=1;align=center;verticalAlign=middle;whiteSpace=wrap;rounded=0;" parent="1" vertex="1">
          <mxGeometry x="309" y="500" width="60" height="30" as="geometry" />
        </mxCell>
        <mxCell id="xJHTBT60ky4UOFHXVave-35" value="&lt;span data-teams=&quot;true&quot;&gt;Multiplicité&lt;/span&gt;" style="text;html=1;align=center;verticalAlign=middle;whiteSpace=wrap;rounded=0;" parent="1" vertex="1">
          <mxGeometry x="369" y="530" width="60" height="30" as="geometry" />
        </mxCell>
        <mxCell id="xJHTBT60ky4UOFHXVave-36" value="&lt;span data-teams=&quot;true&quot;&gt;Multiplicité&lt;/span&gt;" style="text;html=1;align=center;verticalAlign=middle;whiteSpace=wrap;rounded=0;" parent="1" vertex="1">
          <mxGeometry x="560" y="530" width="60" height="30" as="geometry" />
        </mxCell>
        <mxCell id="Yu_k_lygxVu5rTUjSKUg-4" value="" style="shape=mxgraph.arrows2.wedgeArrow;html=1;bendable=0;startWidth=8.27586206896552;fillColor=strokeColor;defaultFillColor=invert;defaultGradientColor=invert;rounded=0;" edge="1" parent="1">
          <mxGeometry width="100" height="100" relative="1" as="geometry">
            <mxPoint x="294" y="514.66" as="sourcePoint" />
            <mxPoint x="274" y="514.66" as="targetPoint" />
          </mxGeometry>
        </mxCell>
        <mxCell id="Yu_k_lygxVu5rTUjSKUg-5" value="" style="shape=mxgraph.arrows2.wedgeArrow;html=1;bendable=0;startWidth=8.27586206896552;fillColor=strokeColor;defaultFillColor=invert;defaultGradientColor=invert;rounded=0;" edge="1" parent="1">
          <mxGeometry width="100" height="100" relative="1" as="geometry">
            <mxPoint x="595" y="514.66" as="sourcePoint" />
            <mxPoint x="575" y="514.66" as="targetPoint" />
          </mxGeometry>
        </mxCell>
        <mxCell id="Yu_k_lygxVu5rTUjSKUg-6" value="NomRole" style="text;html=1;align=center;verticalAlign=middle;whiteSpace=wrap;rounded=0;" vertex="1" parent="1">
          <mxGeometry x="260" y="560" width="60" height="30" as="geometry" />
        </mxCell>
        <mxCell id="Yu_k_lygxVu5rTUjSKUg-7" value="NomRole" style="text;html=1;align=center;verticalAlign=middle;whiteSpace=wrap;rounded=0;" vertex="1" parent="1">
          <mxGeometry x="369" y="555" width="60" height="30" as="geometry" />
        </mxCell>
        <mxCell id="Yu_k_lygxVu5rTUjSKUg-8" value="NomRole" style="text;html=1;align=center;verticalAlign=middle;whiteSpace=wrap;rounded=0;" vertex="1" parent="1">
          <mxGeometry x="560" y="560" width="60" height="30" as="geometry" />
        </mxCell>
        <mxCell id="Yu_k_lygxVu5rTUjSKUg-9" value="NomRole" style="text;html=1;align=center;verticalAlign=middle;whiteSpace=wrap;rounded=0;" vertex="1" parent="1">
          <mxGeometry x="660" y="560" width="60" height="30" as="geometry" />
        </mxCell>
        <mxCell id="Yu_k_lygxVu5rTUjSKUg-10" value="&lt;span data-teams=&quot;true&quot;&gt;multiplicité&lt;/span&gt;&amp;nbsp;=&lt;div style=&quot;text-align: left;&quot;&gt;&lt;span style=&quot;white-space: pre;&quot;&gt;&#x9;&lt;/span&gt;*&lt;/div&gt;&lt;div style=&quot;text-align: left;&quot;&gt;&lt;span style=&quot;background-color: transparent; color: light-dark(rgb(0, 0, 0), rgb(255, 255, 255));&quot;&gt;&lt;span style=&quot;white-space: pre;&quot;&gt;&#x9;&lt;/span&gt;0&lt;/span&gt;&lt;/div&gt;&lt;div style=&quot;text-align: left;&quot;&gt;&lt;span style=&quot;white-space: pre;&quot;&gt;&#x9;&lt;/span&gt;0..*&lt;/div&gt;&lt;div style=&quot;text-align: left;&quot;&gt;&lt;span style=&quot;white-space: pre;&quot;&gt;&#x9;&lt;/span&gt;0..1&lt;/div&gt;&lt;div style=&quot;text-align: left;&quot;&gt;&lt;span style=&quot;white-space: pre;&quot;&gt;&#x9;&lt;/span&gt;1&lt;/div&gt;&lt;div style=&quot;text-align: left;&quot;&gt;&lt;span style=&quot;white-space: pre;&quot;&gt;&#x9;&lt;/span&gt;1..&lt;/div&gt;&lt;div style=&quot;text-align: left;&quot;&gt;&lt;span style=&quot;white-space: pre;&quot;&gt;&#x9;&lt;/span&gt;1..*&lt;/div&gt;&lt;div&gt;&amp;nbsp;&lt;/div&gt;" style="text;html=1;align=center;verticalAlign=middle;whiteSpace=wrap;rounded=0;" vertex="1" parent="1">
          <mxGeometry x="50" y="480" width="110" height="130" as="geometry" />
        </mxCell>
      </root>
    </mxGraphModel>
  </diagram>
</mxfile>
